PathFileType	4	(X/Y/Z)	/Volumes/GoogleDrive/My Drive/Research/Stanford/Projects/Digital Athlete Project/Sprinting/Sprint Simulation/sprinter/subjects/JA1/experimental_data/TRC/static.trc
DataRate	CameraRate	NumFrames	NumMarkers	Units	OrigDataRate	OrigDataStartFrame	OrigNumFrames
250.000000	250.000000	5	57	mm	250.000000	243	646
Frame#	Time	C7			RSH			LSH			MAN			T7			LARM			LELB			LFOREARM			LWR			RARM			RELB			RFOREARM			RWR			RASI			LASI			SACR			P1			P2			P3			LTHLP			LTHLD			LTHAP			LTHAD			LLEPI			LPAT			LMEPI			LTIAP			LTIAD			LTILAT			LLMAL			LMMAL			LHEEL			LMFS			LMFL			LP1MT			LTOE			LP5MT			RTHLP			RTHLD			RTHAP			RTHAD			RLEPI			RPAT			RMEPI			RTIAP			RTIAD			RTILAT			RLMAL			RMMAL			RHEEL			RMFS			RMFL			RP1MT			RTOE			RP5MT			x56			x57			
		X1	Y1	Z1	X2	Y2	Z2	X3	Y3	Z3	X4	Y4	Z4	X5	Y5	Z5	X6	Y6	Z6	X7	Y7	Z7	X8	Y8	Z8	X9	Y9	Z9	X10	Y10	Z10	X11	Y11	Z11	X12	Y12	Z12	X13	Y13	Z13	X14	Y14	Z14	X15	Y15	Z15	X16	Y16	Z16	X17	Y17	Z17	X18	Y18	Z18	X19	Y19	Z19	X20	Y20	Z20	X21	Y21	Z21	X22	Y22	Z22	X23	Y23	Z23	X24	Y24	Z24	X25	Y25	Z25	X26	Y26	Z26	X27	Y27	Z27	X28	Y28	Z28	X29	Y29	Z29	X30	Y30	Z30	X31	Y31	Z31	X32	Y32	Z32	X33	Y33	Z33	X34	Y34	Z34	X35	Y35	Z35	X36	Y36	Z36	X37	Y37	Z37	X38	Y38	Z38	X39	Y39	Z39	X40	Y40	Z40	X41	Y41	Z41	X42	Y42	Z42	X43	Y43	Z43	X44	Y44	Z44	X45	Y45	Z45	X46	Y46	Z46	X47	Y47	Z47	X48	Y48	Z48	X49	Y49	Z49	X50	Y50	Z50	X51	Y51	Z51	X52	Y52	Z52	X53	Y53	Z53	X54	Y54	Z54	X55	Y55	Z55	X56	Y56	Z56	X57	Y57	Z57	
243	0.972000	-698.203491	1569.058716	315.682678	-652.818970	1558.800293	479.213196	-691.308167	1552.935425	159.773682	-542.063232	1483.495728	311.615753	-749.512573	1373.656006	323.883820	-713.064636	1374.617798	44.147621	-732.512207	1249.863159	-12.087339	-687.276489	1141.546021	-98.770325	-667.031250	1017.456177	-160.210983	-670.626770	1389.962036	591.522339	-699.756409	1265.539429	656.949463	-656.862427	1156.314941	741.531921	-638.272339	1034.669678	805.632019	-534.269836	1087.186646	404.784027	-561.849854	1091.527588	189.676315	-731.982910	1134.413818	324.569550	-753.008057	1108.304688	273.254303	-737.430664	1103.927246	378.485992	-776.768372	1050.268433	327.065582	-670.846558	798.717773	110.132057	-666.107788	684.633972	115.924553	-537.134521	784.584229	175.598740	-557.231812	675.555542	181.977020	-659.637512	559.226868	125.378143	-579.684204	561.102600	186.716736	-659.393982	541.533691	251.410828	-643.644775	381.468811	190.288269	-659.796143	243.667236	182.592117	-695.474548	321.229614	110.168961	-701.854980	102.625374	122.123001	-680.691040	112.655701	214.824112	-765.683411	60.848804	166.513916	-600.707520	94.671524	169.786423	-628.747253	69.828415	107.257538	-553.482483	46.383148	202.660995	-498.063507	58.901546	164.331177	-576.703003	36.074482	78.748405	-632.870667	825.126038	518.018005	-636.025269	711.459290	512.546326	-529.718262	783.031494	427.239838	-550.553040	686.542053	423.476379	-653.438599	559.692383	492.895935	-585.607422	551.078735	429.235748	-686.448792	544.348328	369.523773	-658.958984	344.121735	421.761688	-673.809326	217.929382	415.922394	-694.560608	338.224335	508.511047	-695.551270	102.424690	482.316254	-684.581421	113.027260	388.508789	-765.500244	59.065742	441.824005	-592.660950	98.077293	432.600830	-629.384277	69.537842	491.435150	-554.390686	49.089207	388.722931	-494.215424	59.225441	426.282501	-569.766602	40.654118	516.013123	-656.741638	954.387512	-191.438202	-627.876099	966.641418	841.479065
244	0.976000	-693.358093	1567.475586	314.697174	-652.802673	1558.797974	479.196045	-691.400696	1553.017334	159.722260	-542.038330	1483.437378	311.442932	-749.526733	1373.644653	323.845795	-713.077820	1374.627930	44.171398	-732.567505	1249.841064	-12.085084	-687.256470	1141.508057	-98.885498	-667.002258	1017.409424	-160.282715	-670.681702	1389.967041	591.458069	-699.819397	1265.559082	656.881775	-656.959534	1156.352173	741.453247	-638.311096	1034.716553	805.605103	-534.273682	1087.145752	404.768738	-561.887817	1091.481445	189.623993	-732.067810	1134.445190	324.439789	-752.913391	1108.283569	273.248779	-737.415527	1103.884766	378.458038	-776.699646	1050.282837	326.968414	-670.834534	798.714294	110.094727	-666.100220	684.651306	115.881989	-537.057129	784.570618	175.371780	-557.292664	675.580688	182.003311	-659.683228	559.233765	125.434349	-579.671509	561.113281	186.676254	-659.345215	541.489319	251.320877	-643.681396	381.486084	190.274323	-659.760254	243.598206	182.395844	-695.496643	321.270691	110.082458	-701.870422	102.593468	122.118553	-680.711304	112.649940	214.807892	-765.682800	60.802895	166.434845	-600.669800	94.716049	169.717499	-628.756287	69.790886	107.241486	-553.416260	46.428257	202.715042	-498.068817	58.892570	164.331451	-576.743530	36.136532	78.708717	-632.847778	825.142761	518.042236	-636.024719	711.451538	512.519836	-529.726868	783.024902	427.219818	-550.507263	686.539551	423.409485	-653.449158	559.697876	492.902191	-585.598083	551.073669	429.136414	-686.436218	544.336548	369.504242	-658.929688	344.129486	421.740295	-673.874512	217.919678	415.979858	-694.568298	338.190063	508.522278	-695.264709	102.724068	482.556671	-684.935425	112.895828	388.824310	-765.448547	59.033493	441.724792	-592.632385	98.061638	432.503540	-629.343079	69.560005	491.493256	-554.442017	49.127762	388.808411	-494.227905	59.271183	426.200043	-569.816284	40.616970	515.953796	-656.708008	954.336243	-191.487854	-627.882202	966.693542	841.481079
245	0.980000	-693.308228	1567.495483	314.668457	-652.778687	1558.800415	479.142273	-691.440857	1553.012329	159.780350	-542.076416	1483.481445	311.523834	-749.487915	1373.595215	323.805237	-713.053040	1374.593750	44.126930	-732.526367	1249.833740	-12.113741	-687.284912	1141.534424	-98.812874	-667.000488	1017.416260	-160.266953	-670.650757	1389.969727	591.424927	-699.745239	1265.667969	656.917664	-656.909668	1156.356201	741.494568	-638.320129	1034.712769	805.597717	-534.303406	1087.173950	404.743713	-561.860291	1091.516968	189.596848	-732.044861	1134.428101	324.446533	-753.059692	1108.370972	273.060638	-737.336243	1103.845703	378.407074	-776.771851	1050.247314	326.981995	-670.839417	798.727478	110.022484	-666.068115	684.644775	115.865425	-537.064514	784.588806	175.374359	-557.283020	675.544678	182.016663	-659.696106	559.261597	125.415184	-579.644836	561.110046	186.646378	-659.373962	541.502930	251.333344	-643.648987	381.476166	190.280289	-659.762085	243.558182	182.474457	-695.462891	321.210846	110.126862	-701.991516	102.534119	122.187431	-680.758240	112.690353	214.855270	-765.674438	60.854305	166.528595	-600.660278	94.724716	169.755112	-628.757324	69.801636	107.212112	-553.467102	46.470798	202.769043	-498.012634	58.952194	164.288956	-576.731262	36.097576	78.750244	-632.856506	825.156067	517.961060	-635.966614	711.458557	512.580566	-529.712280	783.012329	427.195923	-550.514893	686.530823	423.434875	-653.475830	559.648193	492.765625	-585.610352	551.070984	429.120728	-686.488464	544.343445	369.493378	-658.975830	344.073090	421.815674	-673.879089	217.940582	415.970490	-694.552673	338.235596	508.522736	-695.597290	102.411995	482.290497	-684.862061	112.910461	388.786987	-765.455505	59.061794	441.736542	-592.652283	98.075356	432.590698	-629.367859	69.533363	491.449432	-554.395630	49.075527	388.783966	-494.252808	59.225838	426.266205	-569.783813	40.640594	515.988342	-656.690918	954.333191	-191.500992	-627.924194	966.685547	841.446472
246	0.984000	-693.377869	1567.522949	314.668549	-652.804688	1558.822876	479.098450	-691.390686	1552.985962	159.761108	-542.053711	1483.507568	311.547546	-749.566162	1373.662842	323.911377	-713.023132	1374.582642	44.027302	-732.587341	1249.864624	-12.259763	-687.220642	1141.527954	-98.949570	-666.944275	1017.409851	-160.325836	-670.590332	1389.962036	591.409363	-699.766174	1265.628784	656.826721	-656.933167	1156.357666	741.485535	-638.369995	1034.713745	805.591125	-534.243347	1087.178955	404.722382	-561.908142	1091.556885	189.701233	-732.017029	1134.448364	324.468231	-752.958740	1108.346191	273.141113	-737.407776	1103.925415	378.347870	-776.806519	1050.291016	326.901917	-670.833618	798.724548	110.024811	-666.097168	684.647278	115.831856	-537.146606	784.576538	175.515320	-557.235413	675.541565	181.914352	-659.679382	559.215393	125.377365	-579.642273	561.113159	186.640640	-659.396484	541.523560	251.276657	-643.697571	381.496338	190.286362	-659.770264	243.646622	182.459595	-695.459045	321.290039	110.037949	-701.904114	102.648232	122.102165	-680.643188	112.662056	214.893463	-765.677002	60.854046	166.469025	-600.721436	94.705635	169.767715	-628.737976	69.786423	107.178581	-553.468994	46.439793	202.694229	-498.057587	58.878620	164.267105	-576.746277	36.141312	78.702888	-632.875671	825.162476	517.972290	-636.023682	711.490417	512.453369	-529.695190	783.056946	427.200500	-550.571106	686.535461	423.460388	-653.438782	559.737671	492.919922	-585.613525	551.074463	429.181396	-686.516846	544.305481	369.480591	-658.928772	344.123657	421.735046	-673.703247	218.063858	415.848358	-694.552063	338.264832	508.519012	-695.145142	102.814125	482.665771	-684.737122	112.962234	388.643036	-765.424683	59.081680	441.741699	-592.643860	98.033813	432.662933	-629.407776	69.514786	491.400635	-554.604004	48.917004	388.960510	-494.255005	59.225502	426.270355	-569.829468	40.616562	515.940186	-656.638794	954.326782	-191.520340	-627.988770	966.686157	841.441284
247	0.988000	-693.362488	1567.442505	314.633911	-652.773438	1558.823120	479.063416	-691.355530	1552.951416	159.702881	-542.027710	1483.463623	311.495972	-749.515564	1373.629639	323.689850	-713.048035	1374.603882	44.088356	-732.552917	1249.897949	-12.346209	-687.091064	1141.473022	-99.102570	-666.885803	1017.373291	-160.389954	-670.643494	1389.992310	591.349548	-699.911682	1265.544922	656.709412	-656.952637	1156.365112	741.415466	-638.399841	1034.733643	805.536621	-534.271667	1087.161377	404.674652	-561.816345	1091.498291	189.536194	-732.033447	1134.436279	324.371826	-752.957947	1108.369629	273.063354	-742.512329	1104.629395	378.879913	-776.756714	1050.258545	326.913239	-670.818359	798.713928	110.012451	-666.081848	684.658508	115.803207	-537.101685	784.563416	175.470108	-557.235779	675.532776	181.990021	-659.675903	559.226501	125.346619	-579.663757	561.115234	186.596878	-659.360291	541.530212	251.248489	-643.717651	381.490662	190.291260	-659.778076	243.641403	182.449646	-695.423645	321.241730	110.047310	-701.809692	102.663864	122.036308	-680.593079	112.738541	214.917496	-765.714844	60.832352	166.501740	-600.677856	94.681725	169.789246	-628.736816	69.779503	107.209564	-553.482727	46.397350	202.735245	-498.021667	58.897957	164.326141	-576.715210	36.181374	78.772392	-632.879944	825.151428	517.898193	-636.028381	711.459778	512.445435	-529.741943	783.011902	427.150391	-550.523499	686.541504	423.384857	-653.440308	559.745178	492.922333	-585.595337	551.095337	429.137238	-686.432922	544.334167	369.406555	-658.941284	344.136322	421.766968	-673.726562	218.023651	415.881104	-694.581177	338.252319	508.492950	-695.583008	102.434570	482.291138	-684.714417	113.009941	388.632813	-765.415222	59.017941	441.746277	-592.655029	98.072708	432.616394	-629.342712	69.531799	491.500641	-554.460815	49.172867	388.858978	-494.210938	59.301060	426.340881	-569.820801	40.646927	515.962524	-656.616455	954.299561	-191.539276	-628.024475	966.712952	841.395447
